<?xml version="1.0" encoding="UTF-8" standalone="no"?>
<svg xmlns="http://www.w3.org/2000/svg" contentScriptType="application/ecmascript" contentStyleType="text/css"
     height="1700px" preserveAspectRatio="none" style="width:1976px;height:1700px;" version="1.1"
     viewBox="0 0 1976 1700" width="1976px" zoomAndPan="magnify"><defs><filter height="300%" id="f1juuqht0ucj17" width="300%" x="-1" y="-1"><feGaussianBlur result="blurOut" stdDeviation="4.0"/><feColorMatrix in="blurOut" result="blurOut2" type="matrix" values="0 0 0 0 0 0 0 0 0 0 0 0 0 0 0 0 0 0 .4 0"/><feOffset dx="8.0" dy="8.0" in="blurOut2" result="blurOut3"/><feBlend in="SourceGraphic" in2="blurOut3" mode="normal"/></filter></defs><g><!--MD5=[7fbf5e1b5496779b92b6c3c746b307a8]
cluster jupyter_lab--><rect fill="#FFFFFF" filter="url(#f1juuqht0ucj17)" height="292" style="stroke: #000000; stroke-width: 3.0;" width="434" x="1115" y="250"/><rect fill="#FFFFFF" height="20" style="stroke: #000000; stroke-width: 3.0;" width="30" x="1509" y="260"/><rect fill="#FFFFFF" height="4" style="stroke: #000000; stroke-width: 3.0;" width="8" x="1505" y="264"/><rect fill="#FFFFFF" height="4" style="stroke: #000000; stroke-width: 3.0;" width="8" x="1505" y="272"/><text fill="#000000" font-family="sans-serif" font-size="28" font-weight="bold" lengthAdjust="spacingAndGlyphs" textLength="154" x="1255" y="303.0703">JupyterLab</text><text fill="#000000" font-family="sans-serif" font-size="28" font-weight="bold" lengthAdjust="spacingAndGlyphs" textLength="144" x="1260" y="336.0469">(personal)</text><!--MD5=[0f27f8a42bd8b480bdb6fa2c8c8f3b14]
entity concept_lds--><path d="M1369,1601 C1369,1581 1479,1581 1479,1581 C1479,1581 1589,1581 1589,1601 L1589,1651.9766 C1589,1671.9766 1479,1671.9766 1479,1671.9766 C1479,1671.9766 1369,1671.9766 1369,1651.9766 L1369,1601 " fill="#FFFFFF" filter="url(#f1juuqht0ucj17)" style="stroke: #000000; stroke-width: 3.0;"/><path d="M1369,1601 C1369,1621 1479,1621 1479,1621 C1479,1621 1589,1621 1589,1601 " fill="none" style="stroke: #000000; stroke-width: 3.0;"/><text fill="#000000" font-family="sans-serif" font-size="28" lengthAdjust="spacingAndGlyphs" textLength="180" x="1389" y="1656.0703">Concept-LDS</text><!--MD5=[895f0a9df085ba954c049a1d28e9d1d1]
entity exploration_lds--><path d="M1660,1601 C1660,1581 1793,1581 1793,1581 C1793,1581 1926,1581 1926,1601 L1926,1651.9766 C1926,1671.9766 1793,1671.9766 1793,1671.9766 C1793,1671.9766 1660,1671.9766 1660,1651.9766 L1660,1601 " fill="#FFFFFF" filter="url(#f1juuqht0ucj17)" style="stroke: #000000; stroke-width: 3.0;"/><path d="M1660,1601 C1660,1621 1793,1621 1793,1621 C1793,1621 1926,1621 1926,1601 " fill="none" style="stroke: #000000; stroke-width: 3.0;"/><text fill="#000000" font-family="sans-serif" font-size="28" lengthAdjust="spacingAndGlyphs" textLength="226" x="1680" y="1656.0703">Exploration-LDS</text><!--MD5=[751647576a4a38dfde2198439870d4b2]
entity gcs--><path d="M657,1321 C657,1301 775,1301 775,1301 C775,1301 893,1301 893,1321 L893,1404.9531 C893,1424.9531 775,1424.9531 775,1424.9531 C775,1424.9531 657,1424.9531 657,1404.9531 L657,1321 " fill="#FFFFFF" filter="url(#f1juuqht0ucj17)" style="stroke: #000000; stroke-width: 3.0;"/><path d="M657,1321 C657,1341 775,1341 775,1341 C775,1341 893,1341 893,1321 " fill="none" style="stroke: #000000; stroke-width: 3.0;"/><text fill="#000000" font-family="sans-serif" font-size="28" lengthAdjust="spacingAndGlyphs" textLength="98" x="677" y="1376.0703">Google</text><text fill="#000000" font-family="sans-serif" font-size="28" lengthAdjust="spacingAndGlyphs" textLength="196" x="677" y="1409.0469">Cloud Storage</text><!--MD5=[5427960f0a0d6e728427509f19a12a87]
entity kernel--><rect fill="#FEFECE" filter="url(#f1juuqht0ucj17)" height="125.9531" style="stroke: #A80036; stroke-width: 3.0;" width="298" x="1164" y="368"/><rect fill="#FEFECE" height="20" style="stroke: #A80036; stroke-width: 3.0;" width="30" x="1422" y="378"/><rect fill="#FEFECE" height="4" style="stroke: #A80036; stroke-width: 3.0;" width="8" x="1418" y="382"/><rect fill="#FEFECE" height="4" style="stroke: #A80036; stroke-width: 3.0;" width="8" x="1418" y="390"/><text fill="#000000" font-family="sans-serif" font-size="28" lengthAdjust="spacingAndGlyphs" textLength="218" x="1194" y="435.0703">Spark/Python/R</text><text fill="#000000" font-family="sans-serif" font-size="28" lengthAdjust="spacingAndGlyphs" textLength="88" x="1266" y="468.0469">Kernel</text><!--MD5=[14e8db03c85223c2a718e009212717f3]
entity datasetmetaevents--><path d="M1017,717 L1205,717 C1215,717 1215,759.9766 1215,759.9766 C1215,759.9766 1215,802.9531 1205,802.9531 L1017,802.9531 C1007,802.9531 1007,759.9766 1007,759.9766 C1007,759.9766 1007,717 1017,717 " fill="#ADD8E6" filter="url(#f1juuqht0ucj17)" style="stroke: #A80036; stroke-width: 3.0;"/><path d="M1205,717 C1195,717 1195,759.9766 1195,759.9766 C1195,802.9531 1205,802.9531 1205,802.9531 " fill="none" style="stroke: #A80036; stroke-width: 3.0;"/><text fill="#000000" font-family="sans-serif" font-size="28" font-style="italic" lengthAdjust="spacingAndGlyphs" textLength="116" x="1043" y="754.0703">«events»</text><text fill="#000000" font-family="sans-serif" font-size="28" lengthAdjust="spacingAndGlyphs" textLength="168" x="1017" y="787.0469">DatasetMeta</text><!--MD5=[8b5abbc196906f3889747ab3989bdc23]
entity gcsevents--><path d="M973,1320 L1109,1320 C1119,1320 1119,1362.9766 1119,1362.9766 C1119,1362.9766 1119,1405.9531 1109,1405.9531 L973,1405.9531 C963,1405.9531 963,1362.9766 963,1362.9766 C963,1362.9766 963,1320 973,1320 " fill="#ADD8E6" filter="url(#f1juuqht0ucj17)" style="stroke: #A80036; stroke-width: 3.0;"/><path d="M1109,1320 C1099,1320 1099,1362.9766 1099,1362.9766 C1099,1405.9531 1109,1405.9531 1109,1405.9531 " fill="none" style="stroke: #A80036; stroke-width: 3.0;"/><text fill="#000000" font-family="sans-serif" font-size="28" font-style="italic" lengthAdjust="spacingAndGlyphs" textLength="116" x="973" y="1357.0703">«events»</text><text fill="#000000" font-family="sans-serif" font-size="28" lengthAdjust="spacingAndGlyphs" textLength="56" x="1003" y="1390.0469">GCS</text><!--MD5=[d38bd53982c4aaec3346589a3db723eb]
entity catalogQ--><path d="M1224,1089 L1370,1089 C1380,1089 1380,1115.4883 1380,1115.4883 C1380,1115.4883 1380,1141.9766 1370,1141.9766 L1224,1141.9766 C1214,1141.9766 1214,1115.4883 1214,1115.4883 C1214,1115.4883 1214,1089 1224,1089 " fill="#FFFFFF" filter="url(#f1juuqht0ucj17)" style="stroke: #A80036; stroke-width: 3.0;"/><path d="M1370,1089 C1360,1089 1360,1115.4883 1360,1115.4883 C1360,1141.9766 1370,1141.9766 1370,1141.9766 " fill="none" style="stroke: #A80036; stroke-width: 3.0;"/><text fill="#000000" font-family="sans-serif" font-size="28" lengthAdjust="spacingAndGlyphs" textLength="126" x="1224" y="1126.0703">Metadata</text><!--MD5=[78aa89d1b04708f27753d7f9e025b38a]
entity exploration_ldsQ--><path d="M1200,1337 L1346,1337 C1356,1337 1356,1363.4883 1356,1363.4883 C1356,1363.4883 1356,1389.9766 1346,1389.9766 L1200,1389.9766 C1190,1389.9766 1190,1363.4883 1190,1363.4883 C1190,1363.4883 1190,1337 1200,1337 " fill="#FFFFFF" filter="url(#f1juuqht0ucj17)" style="stroke: #A80036; stroke-width: 3.0;"/><path d="M1346,1337 C1336,1337 1336,1363.4883 1336,1363.4883 C1336,1389.9766 1346,1389.9766 1346,1389.9766 " fill="none" style="stroke: #A80036; stroke-width: 3.0;"/><text fill="#000000" font-family="sans-serif" font-size="28" lengthAdjust="spacingAndGlyphs" textLength="126" x="1200" y="1374.0703">Metadata</text><!--MD5=[bd6ec1bbd55fbe60c00fc4c62c226613]
entity rawdata--><path d="M451,1600 L587,1600 C597,1600 597,1626.4883 597,1626.4883 C597,1626.4883 597,1652.9766 587,1652.9766 L451,1652.9766 C441,1652.9766 441,1626.4883 441,1626.4883 C441,1626.4883 441,1600 451,1600 " fill="#FFFFFF" filter="url(#f1juuqht0ucj17)" style="stroke: #A80036; stroke-width: 3.0;"/><path d="M587,1600 C577,1600 577,1626.4883 577,1626.4883 C577,1652.9766 587,1652.9766 587,1652.9766 " fill="none" style="stroke: #A80036; stroke-width: 3.0;"/><text fill="#000000" font-family="sans-serif" font-size="28" lengthAdjust="spacingAndGlyphs" textLength="116" x="451" y="1637.0703">Rawdata</text><!--MD5=[0542035a50458396a81371d0a47686f8]
entity user_access--><rect fill="#FEFECE" filter="url(#f1juuqht0ucj17)" height="92.9766" style="stroke: #A80036; stroke-width: 3.0;" width="242" x="1706" y="1069"/><rect fill="#FEFECE" height="20" style="stroke: #A80036; stroke-width: 3.0;" width="30" x="1908" y="1079"/><rect fill="#FEFECE" height="4" style="stroke: #A80036; stroke-width: 3.0;" width="8" x="1904" y="1083"/><rect fill="#FEFECE" height="4" style="stroke: #A80036; stroke-width: 3.0;" width="8" x="1904" y="1091"/><text fill="#000000" font-family="sans-serif" font-size="28" lengthAdjust="spacingAndGlyphs" textLength="162" x="1736" y="1136.0703">User Access</text><!--MD5=[c9cea0ee923861e4bd87e30fcc0aab3d]
entity catalog--><rect fill="#FEFECE" filter="url(#f1juuqht0ucj17)" height="92.9766" style="stroke: #A80036; stroke-width: 3.0;" width="186" x="1450" y="1069"/><rect fill="#FEFECE" height="20" style="stroke: #A80036; stroke-width: 3.0;" width="30" x="1596" y="1079"/><rect fill="#FEFECE" height="4" style="stroke: #A80036; stroke-width: 3.0;" width="8" x="1592" y="1083"/><rect fill="#FEFECE" height="4" style="stroke: #A80036; stroke-width: 3.0;" width="8" x="1592" y="1091"/><text fill="#000000" font-family="sans-serif" font-size="28" lengthAdjust="spacingAndGlyphs" textLength="106" x="1480" y="1136.0703">Catalog</text><!--MD5=[423c0ef3cab261c3e07eda542627f835]
entity blueprint--><rect fill="#FEFECE" filter="url(#f1juuqht0ucj17)" height="92.9766" style="stroke: #A80036; stroke-width: 3.0;" width="204" x="1671" y="385"/><rect fill="#FEFECE" height="20" style="stroke: #A80036; stroke-width: 3.0;" width="30" x="1835" y="395"/><rect fill="#FEFECE" height="4" style="stroke: #A80036; stroke-width: 3.0;" width="8" x="1831" y="399"/><rect fill="#FEFECE" height="4" style="stroke: #A80036; stroke-width: 3.0;" width="8" x="1831" y="407"/><text fill="#000000" font-family="sans-serif" font-size="28" lengthAdjust="spacingAndGlyphs" textLength="124" x="1701" y="452.0703">Blueprint</text><!--MD5=[54654c9db40c97ace34321ad1554c642]
entity blueprint_execution--><rect fill="#FEFECE" filter="url(#f1juuqht0ucj17)" height="125.9531" style="stroke: #A80036; stroke-width: 3.0;" width="216" x="1665" y="14"/><rect fill="#FEFECE" height="20" style="stroke: #A80036; stroke-width: 3.0;" width="30" x="1841" y="24"/><rect fill="#FEFECE" height="4" style="stroke: #A80036; stroke-width: 3.0;" width="8" x="1837" y="28"/><rect fill="#FEFECE" height="4" style="stroke: #A80036; stroke-width: 3.0;" width="8" x="1837" y="36"/><text fill="#000000" font-family="sans-serif" font-size="28" lengthAdjust="spacingAndGlyphs" textLength="124" x="1695" y="81.0703">Blueprint</text><text fill="#000000" font-family="sans-serif" font-size="28" lengthAdjust="spacingAndGlyphs" textLength="136" x="1695" y="114.0469">Execution</text><!--MD5=[3ae2097a98cbdb0c513e6c06966dca8b]
entity metadata_ingest--><rect fill="#FEFECE" filter="url(#f1juuqht0ucj17)" height="125.9531" style="stroke: #A80036; stroke-width: 3.0;" width="206" x="1690" y="1300"/><rect fill="#FEFECE" height="20" style="stroke: #A80036; stroke-width: 3.0;" width="30" x="1856" y="1310"/><rect fill="#FEFECE" height="4" style="stroke: #A80036; stroke-width: 3.0;" width="8" x="1852" y="1314"/><rect fill="#FEFECE" height="4" style="stroke: #A80036; stroke-width: 3.0;" width="8" x="1852" y="1322"/><text fill="#000000" font-family="sans-serif" font-size="28" lengthAdjust="spacingAndGlyphs" textLength="126" x="1720" y="1367.0703">Metadata</text><text fill="#000000" font-family="sans-serif" font-size="28" lengthAdjust="spacingAndGlyphs" textLength="84" x="1720" y="1400.0469">ingest</text><!--MD5=[e81492b148d6608fe29aebe50c0992bd]
entity concept_ingest--><rect fill="#FEFECE" filter="url(#f1juuqht0ucj17)" height="125.9531" style="stroke: #A80036; stroke-width: 3.0;" width="194" x="1426" y="1300"/><rect fill="#FEFECE" height="20" style="stroke: #A80036; stroke-width: 3.0;" width="30" x="1580" y="1310"/><rect fill="#FEFECE" height="4" style="stroke: #A80036; stroke-width: 3.0;" width="8" x="1576" y="1314"/><rect fill="#FEFECE" height="4" style="stroke: #A80036; stroke-width: 3.0;" width="8" x="1576" y="1322"/><text fill="#000000" font-family="sans-serif" font-size="28" lengthAdjust="spacingAndGlyphs" textLength="114" x="1456" y="1367.0703">Concept</text><text fill="#000000" font-family="sans-serif" font-size="28" lengthAdjust="spacingAndGlyphs" textLength="84" x="1456" y="1400.0469">ingest</text><!--MD5=[66085980fb25c92f71603a5f15be7374]
entity data_access--><rect fill="#FEFECE" filter="url(#f1juuqht0ucj17)" height="92.9766" style="stroke: #A80036; stroke-width: 3.0;" width="242" x="1394" y="714"/><rect fill="#FEFECE" height="20" style="stroke: #A80036; stroke-width: 3.0;" width="30" x="1596" y="724"/><rect fill="#FEFECE" height="4" style="stroke: #A80036; stroke-width: 3.0;" width="8" x="1592" y="728"/><rect fill="#FEFECE" height="4" style="stroke: #A80036; stroke-width: 3.0;" width="8" x="1592" y="736"/><text fill="#000000" font-family="sans-serif" font-size="28" lengthAdjust="spacingAndGlyphs" textLength="162" x="1424" y="781.0703">Data Access</text><!--MD5=[608d1cc913e673ee5f798ece544755a2]
entity github--><path d="M1706,735 C1706,715 1773,715 1773,715 C1773,715 1840,715 1840,735 L1840,785.9766 C1840,805.9766 1773,805.9766 1773,805.9766 C1773,805.9766 1706,805.9766 1706,785.9766 L1706,735 " fill="#FEFECE" filter="url(#f1juuqht0ucj17)" style="stroke: #000000; stroke-width: 3.0;"/><path d="M1706,735 C1706,755 1773,755 1773,755 C1773,755 1840,755 1840,735 " fill="none" style="stroke: #000000; stroke-width: 3.0;"/><text fill="#000000" font-family="sans-serif" font-size="28" lengthAdjust="spacingAndGlyphs" textLength="94" x="1726" y="790.0703">GitHub</text><!--MD5=[c249f364d83a401275c0ae35335e5f45]
entity source--><rect fill="#FEFECE" filter="url(#f1juuqht0ucj17)" height="125.9531" style="stroke: #A80036; stroke-width: 3.0;" width="234" x="14" y="1300"/><rect fill="#FEFECE" height="20" style="stroke: #A80036; stroke-width: 3.0;" width="30" x="208" y="1310"/><rect fill="#FEFECE" height="4" style="stroke: #A80036; stroke-width: 3.0;" width="8" x="204" y="1314"/><rect fill="#FEFECE" height="4" style="stroke: #A80036; stroke-width: 3.0;" width="8" x="204" y="1322"/><text fill="#000000" font-family="sans-serif" font-size="28" lengthAdjust="spacingAndGlyphs" textLength="114" x="44" y="1367.0703">External</text><text fill="#000000" font-family="sans-serif" font-size="28" lengthAdjust="spacingAndGlyphs" textLength="154" x="44" y="1400.0469">Datasource</text><!--MD5=[49831444eef5d94858aeb779d5d018af]
entity distributor--><rect fill="#FEFECE" filter="url(#f1juuqht0ucj17)" height="125.9531" style="stroke: #A80036; stroke-width: 3.0;" width="228" x="915" y="1052"/><rect fill="#FEFECE" height="20" style="stroke: #A80036; stroke-width: 3.0;" width="30" x="1103" y="1062"/><rect fill="#FEFECE" height="4" style="stroke: #A80036; stroke-width: 3.0;" width="8" x="1099" y="1066"/><rect fill="#FEFECE" height="4" style="stroke: #A80036; stroke-width: 3.0;" width="8" x="1099" y="1074"/><text fill="#000000" font-family="sans-serif" font-size="28" lengthAdjust="spacingAndGlyphs" textLength="126" x="945" y="1119.0703">Metadata</text><text fill="#000000" font-family="sans-serif" font-size="28" lengthAdjust="spacingAndGlyphs" textLength="148" x="945" y="1152.0469">Distributor</text><!--MD5=[a6f0444b0ba395250c60e922fe200d4e]
entity collector--><rect fill="#FEFECE" filter="url(#f1juuqht0ucj17)" height="92.9766" style="stroke: #A80036; stroke-width: 3.0;" width="204" x="29" y="1580"/><rect fill="#FEFECE" height="20" style="stroke: #A80036; stroke-width: 3.0;" width="30" x="193" y="1590"/><rect fill="#FEFECE" height="4" style="stroke: #A80036; stroke-width: 3.0;" width="8" x="189" y="1594"/><rect fill="#FEFECE" height="4" style="stroke: #A80036; stroke-width: 3.0;" width="8" x="189" y="1602"/><text fill="#000000" font-family="sans-serif" font-size="28" lengthAdjust="spacingAndGlyphs" textLength="124" x="59" y="1647.0703">Collector</text><!--MD5=[5ee9985dad366ed98710f937d17dcbd6]
entity converter--><rect fill="#FEFECE" filter="url(#f1juuqht0ucj17)" height="92.9766" style="stroke: #A80036; stroke-width: 3.0;" width="216" x="667" y="1580"/><rect fill="#FEFECE" height="20" style="stroke: #A80036; stroke-width: 3.0;" width="30" x="843" y="1590"/><rect fill="#FEFECE" height="4" style="stroke: #A80036; stroke-width: 3.0;" width="8" x="839" y="1594"/><rect fill="#FEFECE" height="4" style="stroke: #A80036; stroke-width: 3.0;" width="8" x="839" y="1602"/><text fill="#000000" font-family="sans-serif" font-size="28" lengthAdjust="spacingAndGlyphs" textLength="136" x="697" y="1647.0703">Converter</text><!--MD5=[73f168e692ec7ea247adb05c0227f92b]
link catalog to user_access--><path d="M1636.18,1115 C1655.86,1115 1675.54,1115 1695.22,1115 " fill="none" id="catalog-to-user_access" style="stroke: #A80036; stroke-width: 2.0;"/><polygon fill="#A80036" points="1705.5,1115,1687.5,1107,1695.5,1115,1687.5,1123,1705.5,1115" style="stroke: #A80036; stroke-width: 2.0;"/><!--MD5=[2a79692aea46c693899e27c8f003833c]
link data_access to catalog--><path d="M1518.54,806.46 C1523.66,870.54 1533.1,988.8 1538.62,1058.2 " fill="none" id="data_access-to-catalog" style="stroke: #A80036; stroke-width: 2.0;"/><polygon fill="#A80036" points="1539.48,1068.9,1546.0149,1050.3179,1538.6803,1058.932,1530.0661,1051.5974,1539.48,1068.9" style="stroke: #A80036; stroke-width: 2.0;"/><!--MD5=[66df6e41851c3012b1062d6666bed83e]
link data_access to user_access--><path d="M1554.52,806.46 C1612.18,871.34 1719.2,991.72 1780.56,1060.76 " fill="none" id="data_access-to-user_access" style="stroke: #A80036; stroke-width: 2.0;"/><polygon fill="#A80036" points="1787.8,1068.9,1781.8163,1050.1331,1781.1546,1061.4275,1769.8602,1060.7658,1787.8,1068.9" style="stroke: #A80036; stroke-width: 2.0;"/><!--MD5=[8439ceba54a6debdb28197820be90aa3]
link jupyter_lab to github--><path d="M1549.0503,454.7725 C1549.2798,455.0838 1549.5113,455.3979 1549.7449,455.7146 C1551.6131,458.2486 1553.6082,460.9547 1555.7148,463.8119 C1559.9281,469.5264 1564.5875,475.8456 1569.57,482.6025 C1589.5,509.63 1614.6,543.66 1637,574 C1670.12,618.86 1707.82,669.86 1735.1,706.76 " fill="none" id="jupyter_lab-to-github" style="stroke: #A80036; stroke-width: 2.0;"/><polygon fill="#A80036" points="1741.12,714.88,1736.8409,695.6527,1735.1705,706.8424,1723.9808,705.172,1741.12,714.88" style="stroke: #A80036; stroke-width: 2.0;"/><!--MD5=[42303c5abdd3e7973199eb538472d34c]
link blueprint to github--><path d="M1773,477.5 C1773,536.5 1773,640.52 1773,703.96 " fill="none" id="blueprint-to-github" style="stroke: #A80036; stroke-width: 2.0;"/><polygon fill="#A80036" points="1773,714.54,1781,696.54,1773,704.54,1765,696.54,1773,714.54" style="stroke: #A80036; stroke-width: 2.0;"/><text fill="#000000" font-family="sans-serif" font-size="26" lengthAdjust="spacingAndGlyphs" textLength="124" x="1775" y="632.1367">read-only</text><!--MD5=[f98f405b769f80927451412f62d89c9e]
link blueprint_execution to blueprint--><path d="M1773,140.76 C1773,206.82 1773,310.56 1773,373.92 " fill="none" id="blueprint_execution-to-blueprint" style="stroke: #A80036; stroke-width: 2.0;"/><polygon fill="#A80036" points="1773,384.48,1781,366.48,1773,374.48,1765,366.48,1773,384.48" style="stroke: #A80036; stroke-width: 2.0;"/><!--MD5=[8f734284adec911f686391c3fdda7263]
link kernel to gcs--><path d="M1209.18,494.44 C1132.96,544.56 1032.44,621.96 971,714 C847.42,899.16 799.36,1165.1 782.76,1290.48 " fill="none" id="kernel-to-gcs" style="stroke: #A80036; stroke-width: 2.0;"/><polygon fill="#A80036" points="781.44,1300.72,791.6885,1283.8983,782.7261,1290.803,775.8213,1281.8406,781.44,1300.72" style="stroke: #A80036; stroke-width: 2.0;"/><text fill="#000000" font-family="sans-serif" font-size="26" lengthAdjust="spacingAndGlyphs" textLength="0" x="931" y="893.1367"/><text fill="#000000" font-family="sans-serif" font-size="26" lengthAdjust="spacingAndGlyphs" textLength="0" x="931" y="923.7578"/><text fill="#000000" font-family="sans-serif" font-size="26" lengthAdjust="spacingAndGlyphs" textLength="68" x="893" y="954.3789">read/</text><text fill="#000000" font-family="sans-serif" font-size="26" lengthAdjust="spacingAndGlyphs" textLength="62" x="896" y="985">write</text><!--MD5=[17cbd4627fd9f7f89fcedb0aea7325e7]
link kernel to data_access--><path d="M1351,494.14 C1388.74,554.86 1446.06,647.06 1481.96,704.86 " fill="none" id="kernel-to-data_access" style="stroke: #A80036; stroke-width: 2.0;"/><polygon fill="#A80036" points="1487.54,713.82,1484.843,694.3078,1482.2657,705.324,1471.2494,702.7467,1487.54,713.82" style="stroke: #A80036; stroke-width: 2.0;"/><text fill="#000000" font-family="sans-serif" font-size="26" lengthAdjust="spacingAndGlyphs" textLength="98" x="1453" y="617.1367">get GCS</text><text fill="#000000" font-family="sans-serif" font-size="26" lengthAdjust="spacingAndGlyphs" textLength="72" x="1466" y="647.7578">token</text><!--MD5=[a63e950ecd2fb76fe652ea84a6676047]
link collector to rawdata--><path d="M233.44,1626 C294.54,1626 371.32,1626 429.9,1626 " fill="none" id="collector-to-rawdata" style="stroke: #A80036; stroke-width: 2.0;"/><polygon fill="#A80036" points="440.6,1626,422.6,1618,430.6,1626,422.6,1634,440.6,1626" style="stroke: #A80036; stroke-width: 2.0;"/><text fill="#000000" font-family="sans-serif" font-size="26" lengthAdjust="spacingAndGlyphs" textLength="114" x="280" y="1583.1367">payload-</text><text fill="#000000" font-family="sans-serif" font-size="26" lengthAdjust="spacingAndGlyphs" textLength="134" x="270" y="1613.7578">encryption</text><!--MD5=[b4785d7f6dbf5636e71a4200d1a41726]
reverse link rawdata to converter--><path d="M607.8,1626 C627.48,1626 647.16,1626 666.84,1626 " fill="none" id="rawdata-backto-converter" style="stroke: #A80036; stroke-width: 2.0; stroke-dasharray: 7.0,7.0;"/><polygon fill="#A80036" points="597.5,1626,615.5,1634,607.5,1626,615.5,1618,597.5,1626" style="stroke: #A80036; stroke-width: 2.0;"/><!--MD5=[d28ab3cdc1e0e02427474ae610aa1bb4]
reverse link gcs to converter--><path d="M775,1435.28 C775,1481.28 775,1540 775,1579.62 " fill="none" id="gcs-backto-converter" style="stroke: #A80036; stroke-width: 2.0;"/><polygon fill="#A80036" points="775,1425.08,767,1443.08,775,1435.08,783,1443.08,775,1425.08" style="stroke: #A80036; stroke-width: 2.0;"/><!--MD5=[4b9ee54ac5f846dec32cc4714c6ec8ec]
link distributor to gcs--><path d="M964.9,1178.58 C928.54,1213.52 882.94,1257.3 845.56,1293.22 " fill="none" id="distributor-to-gcs" style="stroke: #A80036; stroke-width: 2.0;"/><polygon fill="#A80036" points="838.2,1300.3,856.7103,1293.5643,845.3984,1293.3586,845.6041,1282.0468,838.2,1300.3" style="stroke: #A80036; stroke-width: 2.0;"/><!--MD5=[6269061d3ae06cf2a5dabaa286a13a7b]
link distributor to catalogQ--><path d="M1143.1,1115 C1163.08,1115 1183.04,1115 1203,1115 " fill="none" id="distributor-to-catalogQ" style="stroke: #A80036; stroke-width: 2.0;"/><polygon fill="#A80036" points="1213.44,1115,1195.44,1107,1203.44,1115,1195.44,1123,1213.44,1115" style="stroke: #A80036; stroke-width: 2.0;"/><!--MD5=[4176adf51b53fb14be2402886cba84e5]
link distributor to exploration_ldsQ--><path d="M1090.58,1178.58 C1138.74,1226.74 1203.74,1291.74 1241.74,1329.74 " fill="none" id="distributor-to-exploration_ldsQ" style="stroke: #A80036; stroke-width: 2.0;"/><polygon fill="#A80036" points="1248.96,1336.96,1241.8889,1318.5752,1241.8889,1329.8889,1230.5752,1329.8889,1248.96,1336.96" style="stroke: #A80036; stroke-width: 2.0;"/><!--MD5=[bf01402c27f04f2e3cfa0bc90d5d2e90]
link gcs to gcsevents--><path d="M893.46,1363 C913.08,1363 932.72,1363 952.34,1363 " fill="none" id="gcs-to-gcsevents" style="stroke: #A80036; stroke-width: 2.0;"/><polygon fill="#A80036" points="962.62,1363,944.62,1355,952.62,1363,944.62,1371,962.62,1363" style="stroke: #A80036; stroke-width: 2.0;"/><!--MD5=[a06a3ce011067fc6d3c1e01230774fb4]
link kernel to datasetmetaevents--><path d="M1275,494.14 C1236.6,555.92 1177.96,650.26 1142.2,707.8 " fill="none" id="kernel-to-datasetmetaevents" style="stroke: #A80036; stroke-width: 2.0;"/><polygon fill="#A80036" points="1136.66,716.72,1152.9673,705.6713,1141.9471,708.232,1139.3864,697.2119,1136.66,716.72" style="stroke: #A80036; stroke-width: 2.0;"/><text fill="#000000" font-family="sans-serif" font-size="26" lengthAdjust="spacingAndGlyphs" textLength="54" x="1215" y="632.1367">sign</text><!--MD5=[1ed18f7a59f42ff1ceaa3c4793387840]
link distributor to gcsevents--><path d="M1032.02,1178.58 C1034,1218.84 1036.56,1270.84 1038.44,1309.02 " fill="none" id="distributor-to-gcsevents" style="stroke: #A80036; stroke-width: 2.0; stroke-dasharray: 7.0,7.0;"/><polygon fill="#A80036" points="1038.96,1319.4,1046.0773,1301.0331,1038.4749,1309.4118,1030.0962,1301.8093,1038.96,1319.4" style="stroke: #A80036; stroke-width: 2.0;"/><!--MD5=[6db7f9de865ba3355c3ea0981ae8eef5]
reverse link datasetmetaevents to distributor--><path d="M1098.98,813.42 C1084.18,876.84 1059.02,984.48 1043.26,1052 " fill="none" id="datasetmetaevents-backto-distributor" style="stroke: #A80036; stroke-width: 2.0; stroke-dasharray: 7.0,7.0;"/><polygon fill="#A80036" points="1101.28,803.64,1089.3802,819.337,1098.996,813.3757,1104.9573,822.9914,1101.28,803.64" style="stroke: #A80036; stroke-width: 2.0;"/><!--MD5=[2226e7c3dd0b78ff7373f07cf54a3799]
reverse link exploration_ldsQ to metadata_ingest--><path d="M1301.4,1329.6 C1329.48,1299.36 1375.5,1256.9 1426,1239 C1507.28,1210.2 1537.92,1212.62 1620,1239 C1658.34,1251.32 1695.4,1275.64 1725.32,1299.48 " fill="none" id="exploration_ldsQ-backto-metadata_ingest" style="stroke: #A80036; stroke-width: 2.0; stroke-dasharray: 7.0,7.0;"/><polygon fill="#A80036" points="1294.66,1337,1312.6968,1329.0832,1301.3952,1329.6084,1300.8701,1318.3068,1294.66,1337" style="stroke: #A80036; stroke-width: 2.0;"/><!--MD5=[20fa7c79ac22fa66b8e794866689f10f]
link metadata_ingest to exploration_lds--><path d="M1793,1426.38 C1793,1470.24 1793,1528.66 1793,1570.58 " fill="none" id="metadata_ingest-to-exploration_lds" style="stroke: #A80036; stroke-width: 2.0;"/><polygon fill="#A80036" points="1793,1580.88,1801,1562.88,1793,1570.88,1785,1562.88,1793,1580.88" style="stroke: #A80036; stroke-width: 2.0;"/><text fill="#000000" font-family="sans-serif" font-size="26" lengthAdjust="spacingAndGlyphs" textLength="20" x="1795" y="1513.1367">w</text><!--MD5=[868dca9ee5ae3024920a511b1b8ab22d]
link concept_ingest to exploration_lds--><path d="M1586.98,1426.38 C1633.86,1471.34 1696.72,1531.64 1740.62,1573.76 " fill="none" id="concept_ingest-to-exploration_lds" style="stroke: #A80036; stroke-width: 2.0;"/><polygon fill="#A80036" points="1748.04,1580.88,1740.5622,1562.6569,1740.8136,1573.9678,1729.5027,1574.2191,1748.04,1580.88" style="stroke: #A80036; stroke-width: 2.0;"/><text fill="#000000" font-family="sans-serif" font-size="26" lengthAdjust="spacingAndGlyphs" textLength="20" x="1683" y="1513.1367">w</text><!--MD5=[1368b7148e06161b0ef3dd011c35f4ed]
link concept_ingest to concept_lds--><path d="M1512.58,1426.38 C1505.12,1470.24 1495.2,1528.66 1488.08,1570.58 " fill="none" id="concept_ingest-to-concept_lds" style="stroke: #A80036; stroke-width: 2.0;"/><polygon fill="#A80036" points="1486.32,1580.88,1497.2397,1564.4861,1488.0057,1571.0231,1481.4687,1561.789,1486.32,1580.88" style="stroke: #A80036; stroke-width: 2.0;"/><text fill="#000000" font-family="sans-serif" font-size="26" lengthAdjust="spacingAndGlyphs" textLength="10" x="1505" y="1513.1367">r</text><!--MD5=[d1d5fccc50443270e1c3a04ca479e958]
reverse link catalogQ to catalog--><path d="M1390.86,1115 C1410.5,1115 1430.12,1115 1449.74,1115 " fill="none" id="catalogQ-backto-catalog" style="stroke: #A80036; stroke-width: 2.0; stroke-dasharray: 7.0,7.0;"/><polygon fill="#A80036" points="1380.6,1115,1398.6,1123,1390.6,1115,1398.6,1107,1380.6,1115" style="stroke: #A80036; stroke-width: 2.0;"/><!--MD5=[5050f493c93bd6054adf1d0a501c8979]
reverse link source to collector--><path d="M131,1436.52 C131,1482.2 131,1540 131,1579.26 " fill="none" id="source-backto-collector" style="stroke: #A80036; stroke-width: 2.0; stroke-dasharray: 7.0,7.0;"/><polygon fill="#A80036" points="131,1426.38,123,1444.38,131,1436.38,139,1444.38,131,1426.38" style="stroke: #A80036; stroke-width: 2.0;"/><!--MD5=[3ff198835a52afe30e055f49688447be]
@startuml

skinparam queue {
	backgroundColor<<events>> LightBlue
}

skinparam transparent {
    ArrowColor Transparent
}

component "User Access" as user_access
component "Catalog" as catalog
component "Blueprint" as blueprint
component "Blueprint\nExecution" as blueprint_execution
component "Metadata\ningest" as metadata_ingest
component "Concept\ningest" as concept_ingest
component "Data Access" as data_access
database "Concept-LDS" as concept_lds {
}
database "Exploration-LDS" as exploration_lds {
}
database "Google\nCloud Storage" as gcs {
}
component "JupyterLab\n(personal)" as jupyter_lab {
    component "Spark/Python/R\n         Kernel" as kernel
}
catalog -> user_access
data_access - -> catalog
data_access - -> user_access

database "GitHub" as github

jupyter_lab - -> github
blueprint - -> github : read-only
blueprint_execution - -> blueprint
kernel - -> gcs : \n\nread/\nwrite
kernel - -> data_access : get GCS\ntoken

component "External\nDatasource" as source
component "Metadata\nDistributor" as distributor
queue "DatasetMeta" as datasetmetaevents <<events>> {
}
queue "GCS" as gcsevents <<events>> {
}
queue "Metadata" as catalogQ {
}
queue "Metadata" as exploration_ldsQ {
}
component "Collector" as collector
queue "Rawdata" as rawdata {
}
component "Converter" as converter
collector -> rawdata : payload-\nencryption
rawdata <. converter
converter -u-> gcs

distributor - -> gcs
distributor -> catalogQ
distributor - -> exploration_ldsQ
gcs -> gcsevents
kernel - -> datasetmetaevents : sign
distributor .> gcsevents
datasetmetaevents <.. distributor
exploration_ldsQ <. metadata_ingest
metadata_ingest - -> exploration_lds : w
concept_ingest - -> exploration_lds : w
concept_ingest - -> concept_lds : r
catalogQ <. catalog
collector .u.> source

@enduml

PlantUML version 1.2020.19(Mon Oct 12 17:10:01 CEST 2020)
(GPL source distribution)
Java Runtime: OpenJDK Runtime Environment
JVM: OpenJDK 64-Bit Server VM
Default Encoding: UTF-8
Language: en
Country: NO
--></g></svg>