<?xml version="1.0" encoding="UTF-8" standalone="no"?>
<svg xmlns="http://www.w3.org/2000/svg" contentScriptType="application/ecmascript" contentStyleType="text/css"
     height="1860px" preserveAspectRatio="none" style="width:2390px;height:1860px;" version="1.1"
     viewBox="0 0 2390 1860" width="2390px" zoomAndPan="magnify"><defs><filter height="300%" id="f1rk9pq4qfccbg" width="300%" x="-1" y="-1"><feGaussianBlur result="blurOut" stdDeviation="4.0"/><feColorMatrix in="blurOut" result="blurOut2" type="matrix" values="0 0 0 0 0 0 0 0 0 0 0 0 0 0 0 0 0 0 .4 0"/><feOffset dx="8.0" dy="8.0" in="blurOut2" result="blurOut3"/><feBlend in="SourceGraphic" in2="blurOut3" mode="normal"/></filter></defs><g><!--MD5=[ca10d79cc34dfaa50101f585b5d0d43b]
cluster dataproc--><polygon fill="#FFFFFF" filter="url(#f1rk9pq4qfccbg)" points="538,236,558,216,1100,216,1100,747,1080,767,538,767,538,236" style="stroke: #000000; stroke-width: 3.0;"/><line style="stroke: #000000; stroke-width: 3.0;" x1="1080" x2="1098" y1="236" y2="218"/><line style="stroke: #000000; stroke-width: 3.0;" x1="538" x2="1080" y1="236" y2="236"/><line style="stroke: #000000; stroke-width: 3.0;" x1="1080" x2="1080" y1="236" y2="767"/><text fill="#000000" font-family="sans-serif" font-size="28" font-style="italic" lengthAdjust="spacingAndGlyphs" textLength="136" x="743" y="269.0703">«Hadoop»</text><text fill="#000000" font-family="sans-serif" font-size="28" font-weight="bold" lengthAdjust="spacingAndGlyphs" textLength="128" x="747" y="302.0469">Dataproc</text><!--MD5=[00e0d4b11adfdfdfca7f149b309760f3]
cluster Collection--><path d="M81.6006,993.4297 C95.063,965.4375 114.8053,963.5474 137.1391,983.0573 C156.4549,954.333 176.8494,945.801 200.6139,978.4568 C212.9337,956.245 232.2914,948.2467 250.6633,971.8445 C268.0543,936.2144 291.8789,933.5921 316.8844,964.2362 C340.001,944.9658 360.163,946.5059 372.0264,976.7647 C389.3373,950.3557 409.7839,950.9668 427.1628,976.6929 C450.5974,948.355 472.2336,952.0165 486.9157,985.1946 C512.346,961.3443 547.7897,966.0877 558,1003 C560.3209,999.7922 562.8586,999.831 564.8385,1003.3468 C591.8496,1022.3178 590.3271,1050.5036 561.0024,1066.0268 C584.2072,1076.3122 589.1986,1099.286 566.5098,1114.7581 C588.8583,1132.7194 584.2634,1157.6684 559.9933,1170.1447 C583.6865,1186.9878 587.0609,1206.7948 562.7737,1226.0253 C588.4145,1247.2399 594.5471,1266.3328 562.5042,1287.2937 C587.4059,1303.8348 588.0819,1323.8189 561.1728,1339.0265 C587.8453,1352.2745 591.3501,1370.7381 571.4769,1392.8903 C597.246,1413.2128 590.484,1433.7138 563.5864,1446.248 C590.9449,1463.0761 595.2926,1492.5755 563.3705,1509.2003 C588.1831,1524.6504 592.2402,1547.6095 564.3584,1564.0093 C592.796,1577.5861 592.8388,1595.3314 568.8934,1613.69 C593.8678,1634.0993 597.0182,1654.8943 565.9926,1672.5434 C590.1476,1686.2979 588.1893,1708.6692 567.885,1724.0569 C593.5988,1752.1969 579.4813,1784.0252 544,1790 C546.9226,1785.5467 551.6697,1786.1359 554.0323,1790.6281 C540.3749,1827.425 510.3709,1827.2289 490.0819,1796.9507 C471.7517,1827.4762 453.8254,1821.5108 434.5665,1797.9032 C421.0301,1833.558 390.7632,1836.3899 369.3121,1805.6863 C356.7959,1832.0825 335.9729,1832.0782 317.7554,1812.0128 C296.0026,1833.2787 269.8711,1831.8049 258.9555,1800.0047 C238.0214,1829.5125 218.3742,1827.9138 198.9298,1798.4874 C178.6826,1825.8094 154.5309,1830.0629 135.0116,1797.7077 C101.6326,1832.6136 70.0876,1821.5782 60,1776 C61.6416,1772.9199 64.1268,1773.4095 65.6909,1776.0768 C35.6938,1764.5461 33.1646,1738.2548 60.4531,1721.2513 C36.8596,1706.4472 37.8114,1690.3155 59.8229,1674.8915 C32.4358,1659.5966 26.3855,1629.8951 56.2478,1611.3778 C27.2203,1600.3741 29.4953,1575.0852 50.565,1558.6792 C20.7206,1541.3435 20.435,1524.3844 47.904,1504.247 C22.6149,1492.1494 14.1081,1468.712 39.9396,1449.216 C13.0832,1433.1745 14.1693,1413.8145 40.8789,1398.7704 C14.3413,1377.5622 10.5379,1356.3538 39.9549,1334.3431 C12.7898,1314.5864 14.5012,1296.1056 43.1432,1279.5991 C23.5314,1257.6725 25.4691,1241.7319 53.32,1229.4341 C28.4115,1211.0134 33.6172,1188.0808 58.693,1174.5538 C32.6805,1158.8027 31.5547,1132.5798 56.6529,1115.0756 C35.0045,1094.9066 34.4705,1076.9918 60.6656,1060.3296 C27.0261,1028.5563 31.8139,1006.5983 74,989 C77.9854,986.8657 81.8959,988.2189 81.6006,993.4297 " fill="#FFFFFF" style="stroke: #000000; stroke-width: 3.0;"/><text fill="#000000" font-family="sans-serif" font-size="28" font-weight="bold" lengthAdjust="spacingAndGlyphs" textLength="146" x="236" y="1026.0703">Collection</text><!--MD5=[295a976c667d97fa9305b5b4894200bc]
cluster sec_proxy--><rect fill="#FFFFFF" filter="url(#f1rk9pq4qfccbg)" height="178" style="stroke: #000000; stroke-width: 3.0;" width="402" x="108" y="1075"/><rect fill="#FFFFFF" height="20" style="stroke: #000000; stroke-width: 3.0;" width="30" x="470" y="1085"/><rect fill="#FFFFFF" height="4" style="stroke: #000000; stroke-width: 3.0;" width="8" x="466" y="1089"/><rect fill="#FFFFFF" height="4" style="stroke: #000000; stroke-width: 3.0;" width="8" x="466" y="1097"/><text fill="#000000" font-family="sans-serif" font-size="28" font-weight="bold" lengthAdjust="spacingAndGlyphs" textLength="182" x="218" y="1128.0703">Secure proxy</text><!--MD5=[9aaab535b46e2438a8d6e96c4f49ece1]
entity lds--><path d="M1600,1723 C1600,1703 1740,1703 1740,1703 C1740,1703 1880,1703 1880,1723 L1880,1773.9766 C1880,1793.9766 1740,1793.9766 1740,1793.9766 C1740,1793.9766 1600,1793.9766 1600,1773.9766 L1600,1723 " fill="#FFFFFF" filter="url(#f1rk9pq4qfccbg)" style="stroke: #000000; stroke-width: 3.0;"/><path d="M1600,1723 C1600,1743 1740,1743 1740,1743 C1740,1743 1880,1743 1880,1723 " fill="none" style="stroke: #000000; stroke-width: 3.0;"/><text fill="#000000" font-family="sans-serif" font-size="28" lengthAdjust="spacingAndGlyphs" textLength="240" x="1620" y="1778.0703">Linked Data Store</text><!--MD5=[751647576a4a38dfde2198439870d4b2]
entity gcs--><path d="M698,1415 C698,1395 816,1395 816,1395 C816,1395 934,1395 934,1415 L934,1498.9531 C934,1518.9531 816,1518.9531 816,1518.9531 C816,1518.9531 698,1518.9531 698,1498.9531 L698,1415 " fill="#FFFFFF" filter="url(#f1rk9pq4qfccbg)" style="stroke: #000000; stroke-width: 3.0;"/><path d="M698,1415 C698,1435 816,1435 816,1435 C816,1435 934,1435 934,1415 " fill="none" style="stroke: #000000; stroke-width: 3.0;"/><text fill="#000000" font-family="sans-serif" font-size="28" lengthAdjust="spacingAndGlyphs" textLength="98" x="718" y="1470.0703">Google</text><text fill="#000000" font-family="sans-serif" font-size="28" lengthAdjust="spacingAndGlyphs" textLength="196" x="718" y="1503.0469">Cloud Storage</text><!--MD5=[e0030b99874d6ab50cbf22919d4ce2dc]
entity worker1--><polygon fill="#FEFECE" filter="url(#f1rk9pq4qfccbg)" points="587,364,607,344,765,344,765,416.9766,745,436.9766,587,436.9766,587,364" style="stroke: #000000; stroke-width: 3.0;"/><line style="stroke: #000000; stroke-width: 3.0;" x1="745" x2="763" y1="364" y2="346"/><line style="stroke: #000000; stroke-width: 3.0;" x1="587" x2="745" y1="364" y2="364"/><line style="stroke: #000000; stroke-width: 3.0;" x1="745" x2="745" y1="364" y2="436.9766"/><text fill="#000000" font-family="sans-serif" font-size="28" lengthAdjust="spacingAndGlyphs" textLength="98" x="617" y="411.0703">Worker</text><!--MD5=[c7c39400c8a76e6fb428b349b524c235]
entity worker2--><polygon fill="#FEFECE" filter="url(#f1rk9pq4qfccbg)" points="835,364,855,344,1013,344,1013,416.9766,993,436.9766,835,436.9766,835,364" style="stroke: #000000; stroke-width: 3.0;"/><line style="stroke: #000000; stroke-width: 3.0;" x1="993" x2="1011" y1="364" y2="346"/><line style="stroke: #000000; stroke-width: 3.0;" x1="835" x2="993" y1="364" y2="364"/><line style="stroke: #000000; stroke-width: 3.0;" x1="993" x2="993" y1="364" y2="436.9766"/><text fill="#000000" font-family="sans-serif" font-size="28" lengthAdjust="spacingAndGlyphs" textLength="98" x="865" y="411.0703">Worker</text><!--MD5=[0e6d733fd9686496e511d9cdcb2ebea7]
entity worker3--><polygon fill="#FEFECE" filter="url(#f1rk9pq4qfccbg)" points="587,647,607,627,765,627,765,699.9766,745,719.9766,587,719.9766,587,647" style="stroke: #000000; stroke-width: 3.0;"/><line style="stroke: #000000; stroke-width: 3.0;" x1="745" x2="763" y1="647" y2="629"/><line style="stroke: #000000; stroke-width: 3.0;" x1="587" x2="745" y1="647" y2="647"/><line style="stroke: #000000; stroke-width: 3.0;" x1="745" x2="745" y1="647" y2="719.9766"/><text fill="#000000" font-family="sans-serif" font-size="28" lengthAdjust="spacingAndGlyphs" textLength="98" x="617" y="694.0703">Worker</text><!--MD5=[3c02d4a352622d9da96cbcb27490cfc4]
entity worker4--><polygon fill="#FEFECE" filter="url(#f1rk9pq4qfccbg)" points="835,647,855,627,1013,627,1013,699.9766,993,719.9766,835,719.9766,835,647" style="stroke: #000000; stroke-width: 3.0;"/><line style="stroke: #000000; stroke-width: 3.0;" x1="993" x2="1011" y1="647" y2="629"/><line style="stroke: #000000; stroke-width: 3.0;" x1="835" x2="993" y1="647" y2="647"/><line style="stroke: #000000; stroke-width: 3.0;" x1="993" x2="993" y1="647" y2="719.9766"/><text fill="#000000" font-family="sans-serif" font-size="28" lengthAdjust="spacingAndGlyphs" textLength="98" x="865" y="694.0703">Worker</text><!--MD5=[14e8db03c85223c2a718e009212717f3]
entity datasetmetaevents--><path d="M1312,630 L1500,630 C1510,630 1510,672.9766 1510,672.9766 C1510,672.9766 1510,715.9531 1500,715.9531 L1312,715.9531 C1302,715.9531 1302,672.9766 1302,672.9766 C1302,672.9766 1302,630 1312,630 " fill="#ADD8E6" filter="url(#f1rk9pq4qfccbg)" style="stroke: #A80036; stroke-width: 3.0;"/><path d="M1500,630 C1490,630 1490,672.9766 1490,672.9766 C1490,715.9531 1500,715.9531 1500,715.9531 " fill="none" style="stroke: #A80036; stroke-width: 3.0;"/><text fill="#000000" font-family="sans-serif" font-size="28" font-style="italic" lengthAdjust="spacingAndGlyphs" textLength="116" x="1338" y="667.0703">«events»</text><text fill="#000000" font-family="sans-serif" font-size="28" lengthAdjust="spacingAndGlyphs" textLength="168" x="1312" y="700.0469">DatasetMeta</text><!--MD5=[8b5abbc196906f3889747ab3989bdc23]
entity gcsevents--><path d="M1204,1414 L1340,1414 C1350,1414 1350,1456.9766 1350,1456.9766 C1350,1456.9766 1350,1499.9531 1340,1499.9531 L1204,1499.9531 C1194,1499.9531 1194,1456.9766 1194,1456.9766 C1194,1456.9766 1194,1414 1204,1414 " fill="#ADD8E6" filter="url(#f1rk9pq4qfccbg)" style="stroke: #A80036; stroke-width: 3.0;"/><path d="M1340,1414 C1330,1414 1330,1456.9766 1330,1456.9766 C1330,1499.9531 1340,1499.9531 1340,1499.9531 " fill="none" style="stroke: #A80036; stroke-width: 3.0;"/><text fill="#000000" font-family="sans-serif" font-size="28" font-style="italic" lengthAdjust="spacingAndGlyphs" textLength="116" x="1204" y="1451.0703">«events»</text><text fill="#000000" font-family="sans-serif" font-size="28" lengthAdjust="spacingAndGlyphs" textLength="56" x="1234" y="1484.0469">GCS</text><!--MD5=[d38bd53982c4aaec3346589a3db723eb]
entity catalogQ--><path d="M1903,1414 L2049,1414 C2059,1414 2059,1456.9766 2059,1456.9766 C2059,1456.9766 2059,1499.9531 2049,1499.9531 L1903,1499.9531 C1893,1499.9531 1893,1456.9766 1893,1456.9766 C1893,1456.9766 1893,1414 1903,1414 " fill="#FFFFFF" filter="url(#f1rk9pq4qfccbg)" style="stroke: #A80036; stroke-width: 3.0;"/><path d="M2049,1414 C2039,1414 2039,1456.9766 2039,1456.9766 C2039,1499.9531 2049,1499.9531 2049,1499.9531 " fill="none" style="stroke: #A80036; stroke-width: 3.0;"/><text fill="#000000" font-family="sans-serif" font-size="28" lengthAdjust="spacingAndGlyphs" textLength="106" x="1903" y="1451.0703">Catalog</text><text fill="#000000" font-family="sans-serif" font-size="28" lengthAdjust="spacingAndGlyphs" textLength="126" x="1903" y="1484.0469">Metadata</text><!--MD5=[20845f82389b7b48dec28d916761179e]
entity ldsQ--><path d="M1667,1414 L1813,1414 C1823,1414 1823,1456.9766 1823,1456.9766 C1823,1456.9766 1823,1499.9531 1813,1499.9531 L1667,1499.9531 C1657,1499.9531 1657,1456.9766 1657,1456.9766 C1657,1456.9766 1657,1414 1667,1414 " fill="#FFFFFF" filter="url(#f1rk9pq4qfccbg)" style="stroke: #A80036; stroke-width: 3.0;"/><path d="M1813,1414 C1803,1414 1803,1456.9766 1803,1456.9766 C1803,1499.9531 1813,1499.9531 1813,1499.9531 " fill="none" style="stroke: #A80036; stroke-width: 3.0;"/><text fill="#000000" font-family="sans-serif" font-size="28" lengthAdjust="spacingAndGlyphs" textLength="50" x="1667" y="1451.0703">LDS</text><text fill="#000000" font-family="sans-serif" font-size="28" lengthAdjust="spacingAndGlyphs" textLength="126" x="1667" y="1484.0469">Metadata</text><!--MD5=[f9558594b9afd5f1b8958c37a108a2f4]
entity lineageQ--><path d="M1431,1414 L1577,1414 C1587,1414 1587,1456.9766 1587,1456.9766 C1587,1456.9766 1587,1499.9531 1577,1499.9531 L1431,1499.9531 C1421,1499.9531 1421,1456.9766 1421,1456.9766 C1421,1456.9766 1421,1414 1431,1414 " fill="#FFFFFF" filter="url(#f1rk9pq4qfccbg)" style="stroke: #A80036; stroke-width: 3.0;"/><path d="M1577,1414 C1567,1414 1567,1456.9766 1567,1456.9766 C1567,1499.9531 1577,1499.9531 1577,1499.9531 " fill="none" style="stroke: #A80036; stroke-width: 3.0;"/><text fill="#000000" font-family="sans-serif" font-size="28" lengthAdjust="spacingAndGlyphs" textLength="106" x="1431" y="1451.0703">Lineage</text><text fill="#000000" font-family="sans-serif" font-size="28" lengthAdjust="spacingAndGlyphs" textLength="126" x="1431" y="1484.0469">Metadata</text><!--MD5=[a6f0444b0ba395250c60e922fe200d4e]
entity collector--><rect fill="#FEFECE" filter="url(#f1rk9pq4qfccbg)" height="72.9766" style="stroke: #A80036; stroke-width: 3.0;" width="164" x="90" y="1421"/><rect fill="#FEFECE" height="10" style="stroke: #A80036; stroke-width: 3.0;" width="20" x="80" y="1431"/><rect fill="#FEFECE" height="10" style="stroke: #A80036; stroke-width: 3.0;" width="20" x="80" y="1473.9766"/><text fill="#000000" font-family="sans-serif" font-size="28" lengthAdjust="spacingAndGlyphs" textLength="124" x="110" y="1468.0703">Collector</text><!--MD5=[5ee9985dad366ed98710f937d17dcbd6]
entity converter--><rect fill="#FEFECE" filter="url(#f1rk9pq4qfccbg)" height="72.9766" style="stroke: #A80036; stroke-width: 3.0;" width="176" x="338" y="1421"/><rect fill="#FEFECE" height="10" style="stroke: #A80036; stroke-width: 3.0;" width="20" x="328" y="1431"/><rect fill="#FEFECE" height="10" style="stroke: #A80036; stroke-width: 3.0;" width="20" x="328" y="1473.9766"/><text fill="#000000" font-family="sans-serif" font-size="28" lengthAdjust="spacingAndGlyphs" textLength="136" x="358" y="1468.0703">Converter</text><!--MD5=[8f5a7bfd4b79e8903a49eb1044654f82]
entity client_cert--><rect fill="#FEFECE" filter="url(#f1rk9pq4qfccbg)" height="44.9766" style="stroke: #000000; stroke-width: 3.0;" width="268" x="194" y="1161"/><text fill="#000000" font-family="sans-serif" font-size="28" lengthAdjust="spacingAndGlyphs" textLength="228" x="214" y="1194.0703">Client Certificate</text><!--MD5=[bd6ec1bbd55fbe60c00fc4c62c226613]
entity rawdata--><path d="M282,1722 L418,1722 C428,1722 428,1748.4883 428,1748.4883 C428,1748.4883 428,1774.9766 418,1774.9766 L282,1774.9766 C272,1774.9766 272,1748.4883 272,1748.4883 C272,1748.4883 272,1722 282,1722 " fill="#FFFFFF" filter="url(#f1rk9pq4qfccbg)" style="stroke: #A80036; stroke-width: 3.0;"/><path d="M418,1722 C408,1722 408,1748.4883 408,1748.4883 C408,1774.9766 418,1774.9766 418,1774.9766 " fill="none" style="stroke: #A80036; stroke-width: 3.0;"/><text fill="#000000" font-family="sans-serif" font-size="28" lengthAdjust="spacingAndGlyphs" textLength="116" x="282" y="1759.0703">Rawdata</text><!--MD5=[0542035a50458396a81371d0a47686f8]
entity user_access--><rect fill="#FEFECE" filter="url(#f1rk9pq4qfccbg)" height="72.9766" style="stroke: #A80036; stroke-width: 3.0;" width="202" x="2167" y="1712"/><rect fill="#FEFECE" height="10" style="stroke: #A80036; stroke-width: 3.0;" width="20" x="2157" y="1722"/><rect fill="#FEFECE" height="10" style="stroke: #A80036; stroke-width: 3.0;" width="20" x="2157" y="1764.9766"/><text fill="#000000" font-family="sans-serif" font-size="28" lengthAdjust="spacingAndGlyphs" textLength="162" x="2187" y="1759.0703">User Access</text><!--MD5=[c9cea0ee923861e4bd87e30fcc0aab3d]
entity catalog--><rect fill="#FEFECE" filter="url(#f1rk9pq4qfccbg)" height="72.9766" style="stroke: #A80036; stroke-width: 3.0;" width="146" x="1951" y="1712"/><rect fill="#FEFECE" height="10" style="stroke: #A80036; stroke-width: 3.0;" width="20" x="1941" y="1722"/><rect fill="#FEFECE" height="10" style="stroke: #A80036; stroke-width: 3.0;" width="20" x="1941" y="1764.9766"/><text fill="#000000" font-family="sans-serif" font-size="28" lengthAdjust="spacingAndGlyphs" textLength="106" x="1971" y="1759.0703">Catalog</text><!--MD5=[14eb05b31ac5cac82a65f4aeb613dce3]
entity pseudo--><rect fill="#FEFECE" filter="url(#f1rk9pq4qfccbg)" height="72.9766" style="stroke: #A80036; stroke-width: 3.0;" width="292" x="606" y="1712"/><rect fill="#FEFECE" height="10" style="stroke: #A80036; stroke-width: 3.0;" width="20" x="596" y="1722"/><rect fill="#FEFECE" height="10" style="stroke: #A80036; stroke-width: 3.0;" width="20" x="596" y="1764.9766"/><text fill="#000000" font-family="sans-serif" font-size="28" lengthAdjust="spacingAndGlyphs" textLength="252" x="626" y="1759.0703">Pseudonymization</text><!--MD5=[5e65698c0c649108074a73b2ad63e8e9]
entity lineage--><rect fill="#FEFECE" filter="url(#f1rk9pq4qfccbg)" height="72.9766" style="stroke: #A80036; stroke-width: 3.0;" width="146" x="1383" y="1712"/><rect fill="#FEFECE" height="10" style="stroke: #A80036; stroke-width: 3.0;" width="20" x="1373" y="1722"/><rect fill="#FEFECE" height="10" style="stroke: #A80036; stroke-width: 3.0;" width="20" x="1373" y="1764.9766"/><text fill="#000000" font-family="sans-serif" font-size="28" lengthAdjust="spacingAndGlyphs" textLength="106" x="1403" y="1759.0703">Lineage</text><!--MD5=[66085980fb25c92f71603a5f15be7374]
entity data_access--><rect fill="#FEFECE" filter="url(#f1rk9pq4qfccbg)" height="72.9766" style="stroke: #A80036; stroke-width: 3.0;" width="202" x="2129" y="1421"/><rect fill="#FEFECE" height="10" style="stroke: #A80036; stroke-width: 3.0;" width="20" x="2119" y="1431"/><rect fill="#FEFECE" height="10" style="stroke: #A80036; stroke-width: 3.0;" width="20" x="2119" y="1473.9766"/><text fill="#000000" font-family="sans-serif" font-size="28" lengthAdjust="spacingAndGlyphs" textLength="162" x="2149" y="1468.0703">Data Access</text><!--MD5=[ab5feff8b9bdb419d1f455c2f59cfe66]
entity zeppelin--><rect fill="#FEFECE" filter="url(#f1rk9pq4qfccbg)" height="72.9766" style="stroke: #A80036; stroke-width: 3.0;" width="158" x="1005" y="25"/><rect fill="#FEFECE" height="10" style="stroke: #A80036; stroke-width: 3.0;" width="20" x="995" y="35"/><rect fill="#FEFECE" height="10" style="stroke: #A80036; stroke-width: 3.0;" width="20" x="995" y="77.9766"/><text fill="#000000" font-family="sans-serif" font-size="28" lengthAdjust="spacingAndGlyphs" textLength="118" x="1025" y="72.0703">Zeppelin</text><!--MD5=[608d1cc913e673ee5f798ece544755a2]
entity github--><path d="M1233,36 C1233,16 1300,16 1300,16 C1300,16 1367,16 1367,36 L1367,86.9766 C1367,106.9766 1300,106.9766 1300,106.9766 C1300,106.9766 1233,106.9766 1233,86.9766 L1233,36 " fill="#FEFECE" filter="url(#f1rk9pq4qfccbg)" style="stroke: #000000; stroke-width: 3.0;"/><path d="M1233,36 C1233,56 1300,56 1300,56 C1300,56 1367,56 1367,36 " fill="none" style="stroke: #000000; stroke-width: 3.0;"/><text fill="#000000" font-family="sans-serif" font-size="28" lengthAdjust="spacingAndGlyphs" textLength="94" x="1253" y="91.0703">GitHub</text><!--MD5=[c249f364d83a401275c0ae35335e5f45]
entity source--><rect fill="#FEFECE" filter="url(#f1rk9pq4qfccbg)" height="105.9531" style="stroke: #A80036; stroke-width: 3.0;" width="194" x="27" y="620"/><rect fill="#FEFECE" height="10" style="stroke: #A80036; stroke-width: 3.0;" width="20" x="17" y="630"/><rect fill="#FEFECE" height="10" style="stroke: #A80036; stroke-width: 3.0;" width="20" x="17" y="705.9531"/><text fill="#000000" font-family="sans-serif" font-size="28" lengthAdjust="spacingAndGlyphs" textLength="114" x="47" y="667.0703">External</text><text fill="#000000" font-family="sans-serif" font-size="28" lengthAdjust="spacingAndGlyphs" textLength="154" x="47" y="700.0469">Datasource</text><!--MD5=[49831444eef5d94858aeb779d5d018af]
entity distributor--><rect fill="#FEFECE" filter="url(#f1rk9pq4qfccbg)" height="105.9531" style="stroke: #A80036; stroke-width: 3.0;" width="188" x="1344" y="1130"/><rect fill="#FEFECE" height="10" style="stroke: #A80036; stroke-width: 3.0;" width="20" x="1334" y="1140"/><rect fill="#FEFECE" height="10" style="stroke: #A80036; stroke-width: 3.0;" width="20" x="1334" y="1215.9531"/><text fill="#000000" font-family="sans-serif" font-size="28" lengthAdjust="spacingAndGlyphs" textLength="126" x="1364" y="1177.0703">Metadata</text><text fill="#000000" font-family="sans-serif" font-size="28" lengthAdjust="spacingAndGlyphs" textLength="148" x="1364" y="1210.0469">Distributor</text><!--MD5=[73f168e692ec7ea247adb05c0227f92b]
link catalog to user_access--><path d="M2097.4,1748 C2117.06,1748 2136.74,1748 2156.42,1748 " fill="none" id="catalog-&gt;user_access" style="stroke: #A80036; stroke-width: 2.0;"/><polygon fill="#A80036" points="2166.7,1748,2148.7,1740,2156.7,1748,2148.7,1756,2166.7,1748" style="stroke: #A80036; stroke-width: 2.0;"/><!--MD5=[2a79692aea46c693899e27c8f003833c]
link data_access to catalog--><path d="M2205.56,1493.04 C2167.92,1545.48 2095.84,1645.9 2054.74,1703.18 " fill="none" id="data_access-&gt;catalog" style="stroke: #A80036; stroke-width: 2.0;"/><polygon fill="#A80036" points="2048.4,1712,2065.4217,1702.0873,2054.2528,1703.8917,2052.4484,1692.7228,2048.4,1712" style="stroke: #A80036; stroke-width: 2.0;"/><!--MD5=[66df6e41851c3012b1062d6666bed83e]
link data_access to user_access--><path d="M2234.5,1493.04 C2241.4,1545.04 2254.52,1644.26 2262.14,1701.76 " fill="none" id="data_access-&gt;user_access" style="stroke: #A80036; stroke-width: 2.0;"/><polygon fill="#A80036" points="2263.5,1712,2269.0651,1693.1048,2262.1858,1702.0867,2253.2039,1695.2074,2263.5,1712" style="stroke: #A80036; stroke-width: 2.0;"/><!--MD5=[371ff3085b72cda7a4c411c2a33da465]
link zeppelin to dataproc--><path d="M1084,97.16 C1084,117.695 1084,145.7363 1084,176.3456 C1084,183.998 1084,191.8108 1084,199.707 C1084,203.6551 1084,207.6241 1084,211.6042 C1084,212.5992 1084,213.595 1084,214.5912 " fill="none" id="zeppelin-dataproc" style="stroke: #A80036; stroke-width: 2.0;"/><!--MD5=[13db7a800c5a1c7e2bc9d7132e7a3983]
link zeppelin to github--><path d="M1163.32,61 C1183.02,61 1202.72,61 1222.42,61 " fill="none" id="zeppelin-&gt;github" style="stroke: #A80036; stroke-width: 2.0;"/><polygon fill="#A80036" points="1232.72,61,1214.72,53,1222.72,61,1214.72,69,1232.72,61" style="stroke: #A80036; stroke-width: 2.0;"/><!--MD5=[60addd2af346649f9311a474eae15a05]
link dataproc to gcs--><path d="M1052.3242,767.8224 C1052.1921,768.5244 1052.0594,769.2258 1051.9262,769.9267 C1051.6598,771.3285 1051.3912,772.7281 1051.1203,774.1254 C1050.5786,776.92 1050.0279,779.7054 1049.4682,782.4805 C1048.3488,788.0308 1047.1931,793.54 1046,799 C997.88,1019.18 897.58,1267.22 846.82,1385.3 " fill="none" id="dataproc-&gt;gcs" style="stroke: #A80036; stroke-width: 2.0;"/><polygon fill="#A80036" points="842.66,1394.94,857.1037,1381.5467,846.5992,1385.7485,842.3974,1375.244,842.66,1394.94" style="stroke: #A80036; stroke-width: 2.0;"/><text fill="#000000" font-family="sans-serif" font-size="26" lengthAdjust="spacingAndGlyphs" textLength="0" x="1080" y="842.1367"/><text fill="#000000" font-family="sans-serif" font-size="26" lengthAdjust="spacingAndGlyphs" textLength="0" x="1080" y="872.7578"/><text fill="#000000" font-family="sans-serif" font-size="26" lengthAdjust="spacingAndGlyphs" textLength="68" x="1042" y="903.3789">read/</text><text fill="#000000" font-family="sans-serif" font-size="26" lengthAdjust="spacingAndGlyphs" textLength="62" x="1045" y="934">write</text><!--MD5=[dae0197d91321638a667799113a1990f]
link dataproc to data_access--><path d="M1100.3217,391.9566 C1100.8727,391.9617 1101.4365,391.9676 1102.0131,391.9741 C1103.1661,391.9873 1104.3699,392.0033 1105.6229,392.0227 C1108.1291,392.0616 1110.8325,392.1139 1113.7223,392.1834 C1119.5018,392.3223 1126.0266,392.5298 1133.2088,392.8347 C1161.9375,394.0544 1201.185,396.8338 1245.33,403.0275 C1333.62,415.415 1441.5,441.46 1524,496 C1896.96,742.56 2143.6,1256.88 2211.2,1410.66 " fill="none" id="dataproc-&gt;data_access" style="stroke: #A80036; stroke-width: 2.0;"/><polygon fill="#A80036" points="2215.4,1420.26,2215.4856,1400.5625,2211.3783,1411.1043,2200.8365,1406.9971,2215.4,1420.26" style="stroke: #A80036; stroke-width: 2.0;"/><text fill="#000000" font-family="sans-serif" font-size="26" lengthAdjust="spacingAndGlyphs" textLength="98" x="1950" y="873.1367">get GCS</text><text fill="#000000" font-family="sans-serif" font-size="26" lengthAdjust="spacingAndGlyphs" textLength="72" x="1963" y="903.7578">token</text><!--MD5=[7e939328d6f50cb24ccaad0987ff7a77]
reverse link sec_proxy to collector--><path d="M136.1002,1253.0528 C136.1631,1253.4067 136.2262,1253.7614 136.2894,1254.117 C136.4158,1254.8281 136.5428,1255.5424 136.6703,1256.2599 C136.9254,1257.6948 137.1827,1259.1421 137.442,1260.6011 C138.4794,1266.4368 139.5497,1272.4575 140.6425,1278.605 C149.385,1327.785 159.57,1385.08 165.9,1420.7 " fill="none" id="sec_proxy&lt;-collector" style="stroke: #A80036; stroke-width: 2.0;"/><polygon fill="#A80036" points="136.1002,1253.0528,131.3741,1272.1751,137.8504,1262.8984,147.1271,1269.3748,136.1002,1253.0528" style="stroke: #A80036; stroke-width: 2.0;"/><!--MD5=[a63e950ecd2fb76fe652ea84a6676047]
link collector to rawdata--><path d="M175.46,1493.44 C180.74,1532.46 193.6,1596.64 224,1643 C243.36,1672.5 273.8,1697.74 299.92,1715.84 " fill="none" id="collector-&gt;rawdata" style="stroke: #A80036; stroke-width: 2.0; stroke-dasharray: 7.0,7.0;"/><polygon fill="#A80036" points="308.6,1721.7,298.1664,1704.9925,300.3148,1716.1004,289.207,1718.2488,308.6,1721.7" style="stroke: #A80036; stroke-width: 2.0;"/><text fill="#000000" font-family="sans-serif" font-size="26" lengthAdjust="spacingAndGlyphs" textLength="114" x="236" y="1606.1367">payload-</text><text fill="#000000" font-family="sans-serif" font-size="26" lengthAdjust="spacingAndGlyphs" textLength="134" x="226" y="1636.7578">encryption</text><!--MD5=[68f702c5eb5cbea38a8062b0b034fd53]
link converter to rawdata--><path d="M417.08,1493.62 C407.52,1530.62 391.84,1591 378,1643 C371.9,1665.88 364.92,1691.56 359.46,1711.56 " fill="none" id="converter-&gt;rawdata" style="stroke: #A80036; stroke-width: 2.0; stroke-dasharray: 7.0,7.0;"/><polygon fill="#A80036" points="356.74,1721.46,369.1981,1706.2023,359.3736,1711.813,353.7629,1701.9886,356.74,1721.46" style="stroke: #A80036; stroke-width: 2.0;"/><!--MD5=[ad4e2300ce4f379d7644c79279f4729d]
link converter to gcs--><path d="M514.5,1457 C565.48,1457 630.48,1457 687.08,1457 " fill="none" id="converter-&gt;gcs" style="stroke: #A80036; stroke-width: 2.0;"/><polygon fill="#A80036" points="697.54,1457,679.54,1449,687.54,1457,679.54,1465,697.54,1457" style="stroke: #A80036; stroke-width: 2.0;"/><text fill="#000000" font-family="sans-serif" font-size="26" lengthAdjust="spacingAndGlyphs" textLength="62" x="599" y="1444.1367">write</text><!--MD5=[54858af966aeec2c2431dfbf21a4559a]
link converter to pseudo--><path d="M464.68,1493.04 C524.96,1546.12 641.12,1648.4 705.76,1705.28 " fill="none" id="converter-&gt;pseudo" style="stroke: #A80036; stroke-width: 2.0;"/><polygon fill="#A80036" points="713.38,1712,705.1353,1694.1108,705.8666,1705.4008,694.5766,1706.1321,713.38,1712" style="stroke: #A80036; stroke-width: 2.0;"/><!--MD5=[4b9ee54ac5f846dec32cc4714c6ec8ec]
link distributor to gcs--><path d="M1350.84,1236.2 C1296.44,1267 1224.38,1305.78 1158,1335 C1088.84,1365.44 1009.32,1393.72 944.38,1415.18 " fill="none" id="distributor-&gt;gcs" style="stroke: #A80036; stroke-width: 2.0;"/><polygon fill="#A80036" points="934.08,1418.56,953.6827,1420.4928,943.5725,1415.4149,948.6505,1405.3048,934.08,1418.56" style="stroke: #A80036; stroke-width: 2.0;"/><text fill="#000000" font-family="sans-serif" font-size="26" lengthAdjust="spacingAndGlyphs" textLength="54" x="1230" y="1328.1367">read</text><!--MD5=[e1e3b2c96176e57d29d97b781073e041]
link distributor to lineageQ--><path d="M1450.56,1236.42 C1462.3,1284.42 1479.72,1355.64 1491.44,1403.62 " fill="none" id="distributor-&gt;lineageQ" style="stroke: #A80036; stroke-width: 2.0; stroke-dasharray: 7.0,7.0;"/><polygon fill="#A80036" points="1493.86,1413.5,1497.363,1394.1163,1491.4885,1403.7853,1481.8195,1397.9107,1493.86,1413.5" style="stroke: #A80036; stroke-width: 2.0;"/><text fill="#000000" font-family="sans-serif" font-size="26" lengthAdjust="spacingAndGlyphs" textLength="48" x="1474" y="1328.1367">pub</text><!--MD5=[6269061d3ae06cf2a5dabaa286a13a7b]
link distributor to catalogQ--><path d="M1532.34,1231.94 C1617.52,1274.38 1746.26,1338.66 1858,1395 C1867.08,1399.58 1876.54,1404.36 1886,1409.16 " fill="none" id="distributor-&gt;catalogQ" style="stroke: #A80036; stroke-width: 2.0; stroke-dasharray: 7.0,7.0;"/><polygon fill="#A80036" points="1895.42,1413.94,1882.976,1398.6709,1886.4987,1409.4222,1875.7474,1412.9449,1895.42,1413.94" style="stroke: #A80036; stroke-width: 2.0;"/><text fill="#000000" font-family="sans-serif" font-size="26" lengthAdjust="spacingAndGlyphs" textLength="48" x="1732" y="1328.1367">pub</text><!--MD5=[540046f737ea042c1ba01a65999d878e]
link distributor to ldsQ--><path d="M1495.52,1236.42 C1550.32,1285.42 1632.22,1358.64 1685.88,1406.6 " fill="none" id="distributor-&gt;ldsQ" style="stroke: #A80036; stroke-width: 2.0; stroke-dasharray: 7.0,7.0;"/><polygon fill="#A80036" points="1693.58,1413.5,1685.5181,1395.5276,1686.1343,1406.8245,1674.8374,1407.4407,1693.58,1413.5" style="stroke: #A80036; stroke-width: 2.0;"/><text fill="#000000" font-family="sans-serif" font-size="26" lengthAdjust="spacingAndGlyphs" textLength="48" x="1600" y="1328.1367">pub</text><!--MD5=[bf01402c27f04f2e3cfa0bc90d5d2e90]
link gcs to gcsevents--><path d="M934.02,1457 C1012,1457 1112.54,1457 1183.62,1457 " fill="none" id="gcs-&gt;gcsevents" style="stroke: #A80036; stroke-width: 2.0; stroke-dasharray: 7.0,7.0;"/><polygon fill="#A80036" points="1193.88,1457,1175.88,1449,1183.88,1457,1175.88,1465,1193.88,1457" style="stroke: #A80036; stroke-width: 2.0;"/><text fill="#000000" font-family="sans-serif" font-size="26" lengthAdjust="spacingAndGlyphs" textLength="186" x="971" y="1444.1367">object-created</text><!--MD5=[575df8a5a47da62a6cdefd4510042b74]
link dataproc to datasetmetaevents--><path d="M1100.3901,406.1988 C1100.6038,406.384 1100.8194,406.5708 1101.0368,406.7593 C1101.9065,407.513 1102.8056,408.2922 1103.7332,409.0961 C1107.4437,412.3117 1111.6102,415.9225 1116.1741,419.8775 C1134.4294,435.6975 1159.0413,457.025 1186.2475,480.6 C1240.66,527.75 1305.45,583.89 1350.52,622.94 " fill="none" id="dataproc-&gt;datasetmetaevents" style="stroke: #A80036; stroke-width: 2.0; stroke-dasharray: 7.0,7.0;"/><polygon fill="#A80036" points="1358.46,629.82,1350.0714,611.9978,1350.8937,623.2816,1339.6099,624.1039,1358.46,629.82" style="stroke: #A80036; stroke-width: 2.0;"/><text fill="#000000" font-family="sans-serif" font-size="26" lengthAdjust="spacingAndGlyphs" textLength="232" x="1274" y="523.1367">dataset-meta.json</text><text fill="#000000" font-family="sans-serif" font-size="26" lengthAdjust="spacingAndGlyphs" textLength="92" x="1344" y="553.7578">created</text><!--MD5=[1ed18f7a59f42ff1ceaa3c4793387840]
link distributor to gcsevents--><path d="M1406.38,1236.42 C1376.64,1284.82 1332.34,1356.84 1302.84,1404.82 " fill="none" id="distributor-&gt;gcsevents" style="stroke: #A80036; stroke-width: 2.0; stroke-dasharray: 7.0,7.0;"/><polygon fill="#A80036" points="1297.52,1413.5,1313.7837,1402.3873,1302.7737,1404.9913,1300.1697,1393.9813,1297.52,1413.5" style="stroke: #A80036; stroke-width: 2.0;"/><text fill="#000000" font-family="sans-serif" font-size="26" lengthAdjust="spacingAndGlyphs" textLength="46" x="1366" y="1328.1367">sub</text><!--MD5=[6db7f9de865ba3355c3ea0981ae8eef5]
reverse link datasetmetaevents to distributor--><path d="M1409.26,726.56 C1415.4,823.58 1428.6,1032.24 1434.74,1129.34 " fill="none" id="datasetmetaevents&lt;-distributor" style="stroke: #A80036; stroke-width: 2.0; stroke-dasharray: 7.0,7.0;"/><polygon fill="#A80036" points="1408.62,716.4,1401.7683,734.8676,1409.2491,726.3802,1417.7366,733.861,1408.62,716.4" style="stroke: #A80036; stroke-width: 2.0;"/><text fill="#000000" font-family="sans-serif" font-size="26" lengthAdjust="spacingAndGlyphs" textLength="46" x="1424" y="888.1367">sub</text><!--MD5=[99c6dce2815f9fc8b5a035efc01a86ca]
reverse link ldsQ to lds--><path d="M1740,1510.62 C1740,1565.28 1740,1650.62 1740,1702.14 " fill="none" id="ldsQ&lt;-lds" style="stroke: #A80036; stroke-width: 2.0; stroke-dasharray: 7.0,7.0;"/><polygon fill="#A80036" points="1740,1500.12,1732,1518.12,1740,1510.12,1748,1518.12,1740,1500.12" style="stroke: #A80036; stroke-width: 2.0;"/><text fill="#000000" font-family="sans-serif" font-size="26" lengthAdjust="spacingAndGlyphs" textLength="46" x="1742" y="1621.1367">sub</text><!--MD5=[d1d5fccc50443270e1c3a04ca479e958]
reverse link catalogQ to catalog--><path d="M1984.62,1510.54 C1994.32,1568.56 2009.82,1661.24 2018.18,1711.26 " fill="none" id="catalogQ&lt;-catalog" style="stroke: #A80036; stroke-width: 2.0; stroke-dasharray: 7.0,7.0;"/><polygon fill="#A80036" points="1982.88,1500.12,1977.9749,1519.1972,1984.5379,1509.9816,1993.7535,1516.5446,1982.88,1500.12" style="stroke: #A80036; stroke-width: 2.0;"/><text fill="#000000" font-family="sans-serif" font-size="26" lengthAdjust="spacingAndGlyphs" textLength="46" x="2006" y="1621.1367">sub</text><!--MD5=[c79bae5ea6985b58e413183cb45b70b4]
reverse link lineageQ to lineage--><path d="M1495.38,1510.54 C1485.68,1568.56 1470.18,1661.24 1461.82,1711.26 " fill="none" id="lineageQ&lt;-lineage" style="stroke: #A80036; stroke-width: 2.0; stroke-dasharray: 7.0,7.0;"/><polygon fill="#A80036" points="1497.12,1500.12,1486.2465,1516.5446,1495.4621,1509.9816,1502.0251,1519.1972,1497.12,1500.12" style="stroke: #A80036; stroke-width: 2.0;"/><text fill="#000000" font-family="sans-serif" font-size="26" lengthAdjust="spacingAndGlyphs" textLength="46" x="1484" y="1621.1367">sub</text><!--MD5=[77365849befe446012fae577ae44526c]
reverse link source to sec_proxy--><path d="M124,736.32 C124,802.6 124,911.3 124,1004.635 C124,1027.9688 124,1050.3422 124,1070.8524 C124,1072.1343 124,1073.4089 124,1074.676 " fill="none" id="source&lt;-sec_proxy" style="stroke: #A80036; stroke-width: 2.0; stroke-dasharray: 7.0,7.0;"/><polygon fill="#A80036" points="124,726.3,116,744.3,124,736.3,132,744.3,124,726.3" style="stroke: #A80036; stroke-width: 2.0;"/><!--MD5=[60337048bbd1f0816de6a29451df6aeb]
link worker1 to worker2--><!--MD5=[55ab8f0234b6f879df40c378767c3bf7]
link worker1 to worker3--><!--MD5=[9c9e6e64090bd54560f9f9836dcd0192]
link worker3 to worker4--><!--MD5=[65b1598092824fa12e0ebd19e16c026e]
@startuml

skinparam queue {
	backgroundColor<<events>> LightBlue
}

component "User Access" as user_access
component "Catalog" as catalog
component "Pseudonymization" as pseudo
component "Lineage" as lineage
component "Data Access" as data_access
database "Linked Data Store" as lds {
}
database "Google\nCloud Storage" as gcs {
}
node "Dataproc" <<Hadoop>> as dataproc {
  node "Worker" as worker1
  node "Worker" as worker2
  node "Worker" as worker3
  node "Worker" as worker4
}
component "Zeppelin" as zeppelin
catalog -> user_access
data_access - -> catalog
data_access - -> user_access

database "GitHub" as github

zeppelin - - dataproc
zeppelin -> github
dataproc - - - -> gcs : \n\nread/\nwrite
dataproc - - - -> data_access : get GCS\ntoken

component "External\nDatasource" as source
component "Metadata\nDistributor" as distributor
queue "DatasetMeta" as datasetmetaevents <<events>> {
}
queue "GCS" as gcsevents <<events>> {
}
queue "Catalog\nMetadata" as catalogQ {
}
queue "LDS\nMetadata" as ldsQ {
}
queue "Lineage\nMetadata" as lineageQ {
}
cloud Collection {
    component "Secure proxy" as sec_proxy {
        card "Client Certificate" as client_cert
    }
    component "Collector" as collector
    queue "Rawdata" as rawdata {
    }
    component "Converter" as converter
    collector -u-> sec_proxy
    collector ..> rawdata : payload-\nencryption
    converter ..> rawdata
    converter -> gcs : "      write"
    converter - -> pseudo
}

distributor - -> gcs : read
distributor ..> lineageQ : pub
distributor ..> catalogQ : pub
distributor ..> ldsQ : pub
gcs .> gcsevents : object-created
dataproc ..> datasetmetaevents : dataset-meta.json\ncreated
distributor .> gcsevents : sub
distributor .u-> datasetmetaevents : sub
lds .u.> ldsQ : sub
catalog .u.> catalogQ : sub
lineage .u.> lineageQ : sub
sec_proxy .u.> source

@enduml

PlantUML version 1.2019.11(Sun Sep 22 12:02:15 CEST 2019)
(GPL source distribution)
Java Runtime: OpenJDK Runtime Environment
JVM: OpenJDK 64-Bit Server VM
Java Version: 11.0.5+10-b520.38
Operating System: Mac OS X
Default Encoding: UTF-8
Language: en
Country: NO
--></g></svg>